<svg width="146" height="18" viewBox="0 0 146 18" fill="none" xmlns="http://www.w3.org/2000/svg">
<path d="M138.962 17.376C137.666 17.376 136.458 17.168 135.338 16.752C134.234 16.32 133.274 15.712 132.458 14.928C131.642 14.144 131.002 13.224 130.538 12.168C130.09 11.112 129.866 9.952 129.866 8.688C129.866 7.424 130.09 6.264 130.538 5.208C131.002 4.152 131.642 3.232 132.458 2.448C133.29 1.664 134.258 1.064 135.362 0.647999C136.466 0.216 137.674 0 138.986 0C140.442 0 141.754 0.256001 142.922 0.768002C144.106 1.264 145.098 2 145.898 2.976L143.402 5.28C142.826 4.624 142.186 4.136 141.482 3.816C140.778 3.48 140.01 3.312 139.178 3.312C138.394 3.312 137.674 3.44 137.018 3.696C136.362 3.952 135.794 4.32 135.314 4.8C134.834 5.28 134.458 5.848 134.186 6.504C133.93 7.16 133.802 7.888 133.802 8.688C133.802 9.488 133.93 10.216 134.186 10.872C134.458 11.528 134.834 12.096 135.314 12.576C135.794 13.056 136.362 13.424 137.018 13.68C137.674 13.936 138.394 14.064 139.178 14.064C140.01 14.064 140.778 13.904 141.482 13.584C142.186 13.248 142.826 12.744 143.402 12.072L145.898 14.376C145.098 15.352 144.106 16.096 142.922 16.608C141.754 17.12 140.434 17.376 138.962 17.376Z" fill="#00B1E9"/>
<path d="M118.595 17.0881L111.347 0.288086H115.547L121.883 15.1681H119.411L125.843 0.288086H129.707L122.435 17.0881H118.595Z" fill="#00B1E9"/>
<path d="M109.34 17.28C108.7 17.28 108.148 17.064 107.684 16.632C107.236 16.184 107.012 15.616 107.012 14.928C107.012 14.24 107.236 13.688 107.684 13.272C108.148 12.84 108.7 12.624 109.34 12.624C109.996 12.624 110.548 12.84 110.996 13.272C111.444 13.688 111.668 14.24 111.668 14.928C111.668 15.616 111.444 16.184 110.996 16.632C110.548 17.064 109.996 17.28 109.34 17.28Z" fill="#00B1E9"/>
<path d="M87.6045 17.0881L95.0925 0.288086H98.9325L106.444 17.0881H102.364L96.2205 2.25609H97.7565L91.5885 17.0881H87.6045ZM91.3485 13.4881L92.3805 10.5361H101.02L102.076 13.4881H91.3485Z" fill="white"/>
<path d="M66.8906 17.0881V0.288086H70.1066L77.2586 12.1441H75.5546L82.5866 0.288086H85.7786L85.8266 17.0881H82.1786L82.1546 5.88009H82.8266L77.2106 15.3121H75.4586L69.7226 5.88009H70.5386V17.0881H66.8906Z" fill="white"/>
<path d="M54.8007 17.376C53.4727 17.376 52.2407 17.16 51.1047 16.728C49.9847 16.296 49.0087 15.688 48.1767 14.904C47.3607 14.12 46.7207 13.2 46.2567 12.144C45.8087 11.088 45.5847 9.936 45.5847 8.688C45.5847 7.44 45.8087 6.288 46.2567 5.232C46.7207 4.176 47.3687 3.256 48.2007 2.472C49.0327 1.688 50.0087 1.08 51.1287 0.647999C52.2487 0.216 53.4647 0 54.7767 0C56.1047 0 57.3207 0.216 58.4247 0.647999C59.5447 1.08 60.5127 1.688 61.3287 2.472C62.1607 3.256 62.8087 4.176 63.2727 5.232C63.7367 6.272 63.9687 7.424 63.9687 8.688C63.9687 9.936 63.7367 11.096 63.2727 12.168C62.8087 13.224 62.1607 14.144 61.3287 14.928C60.5127 15.696 59.5447 16.296 58.4247 16.728C57.3207 17.16 56.1127 17.376 54.8007 17.376ZM54.7767 14.064C55.5287 14.064 56.2167 13.936 56.8407 13.68C57.4807 13.424 58.0407 13.056 58.5207 12.576C59.0007 12.096 59.3687 11.528 59.6247 10.872C59.8967 10.216 60.0327 9.488 60.0327 8.688C60.0327 7.888 59.8967 7.16 59.6247 6.504C59.3687 5.848 59.0007 5.28 58.5207 4.8C58.0567 4.32 57.5047 3.952 56.8647 3.696C56.2247 3.44 55.5287 3.312 54.7767 3.312C54.0247 3.312 53.3287 3.44 52.6887 3.696C52.0647 3.952 51.5127 4.32 51.0327 4.8C50.5527 5.28 50.1767 5.848 49.9047 6.504C49.6487 7.16 49.5207 7.888 49.5207 8.688C49.5207 9.472 49.6487 10.2 49.9047 10.872C50.1767 11.528 50.5447 12.096 51.0087 12.576C51.4887 13.056 52.0487 13.424 52.6887 13.68C53.3287 13.936 54.0247 14.064 54.7767 14.064Z" fill="white"/>
<path d="M27.2578 17.0881V0.288086H30.4738L40.3858 12.3841H38.8258V0.288086H42.6658V17.0881H39.4738L29.5378 4.99209H31.0978V17.0881H27.2578Z" fill="white"/>
<path d="M7.875 17.0881V0.288086H11.091L21.003 12.3841H19.443V0.288086H23.283V17.0881H20.091L10.155 4.99209H11.715V17.0881H7.875Z" fill="white"/>
<path d="M0 17.0881V0.288086H3.888V17.0881H0Z" fill="white"/>
</svg>
