<svg width="73" height="72" viewBox="0 0 73 72" fill="none" xmlns="http://www.w3.org/2000/svg">
<path d="M36.5 0C16.3411 0 0 16.1173 0 36C0 55.8827 16.3411 72 36.5 72C56.6589 72 73 55.8827 73 36C73 16.1173 56.6589 0 36.5 0ZM48.6112 51.9097C48.0372 52.4729 47.4353 53.0637 46.9467 53.5471C46.5066 53.9826 46.196 54.5197 46.0386 55.1018C45.8163 55.9234 45.6368 56.7537 45.3365 57.5506L42.7771 64.3514C40.752 64.7869 38.6561 65.0323 36.5 65.0323V61.0577C36.7487 59.2258 35.3756 55.7942 33.1694 53.6182C32.2863 52.7473 31.7903 51.5656 31.7903 50.3332V45.6866C31.7903 43.9969 30.8675 42.4437 29.3678 41.6265C27.2528 40.4724 24.2445 38.8597 22.1841 37.8363C20.4945 36.9973 18.9314 35.9289 17.5259 34.679L17.4081 34.5745C16.403 33.6796 15.5106 32.6688 14.7501 31.5639C13.3696 29.565 11.1207 26.2771 9.65925 24.1403C12.672 17.5355 18.1014 12.2313 24.848 9.34984L28.3817 11.0932C29.9477 11.8655 31.7903 10.7434 31.7903 9.01597V7.37565C32.9663 7.18839 34.1628 7.06935 35.38 7.02435L39.5451 11.1324C40.465 12.0397 40.465 13.5102 39.5451 14.4174L38.8548 15.0968L37.333 16.5977C36.8738 17.0506 36.8738 17.7866 37.333 18.2395L38.0233 18.9203C38.4825 19.3732 38.4825 20.1092 38.0233 20.5621L36.8459 21.7234C36.6248 21.941 36.3252 22.0632 36.0128 22.0631H34.6897C34.3836 22.0631 34.0892 22.1806 33.8685 22.3926L32.4085 23.7934C32.2295 23.9653 32.1105 24.1888 32.0687 24.4317C32.0269 24.6746 32.0645 24.9243 32.1759 25.1448L34.4704 29.6724C34.8619 30.4447 34.2923 31.3534 33.4181 31.3534H32.588C32.304 31.3534 32.0302 31.2518 31.8168 31.0689L30.451 29.8989C30.1419 29.6344 29.7684 29.4539 29.3671 29.375C28.9658 29.2961 28.5507 29.3215 28.1624 29.4489L23.5749 30.9571C23.2246 31.0723 22.92 31.2933 22.7042 31.5887C22.4884 31.8841 22.3723 32.2391 22.3724 32.6032C22.3724 33.2608 22.7492 33.8603 23.3453 34.155L24.976 34.9592C26.3609 35.6429 27.8886 35.9985 29.437 35.9985C30.9853 35.9985 32.7617 39.96 34.1466 40.6437H43.9707C45.2203 40.6437 46.4168 41.1329 47.3013 42.0039L49.3162 43.9911C50.1579 44.8216 50.6307 45.9479 50.6305 47.1223C50.6302 48.0121 50.4517 48.8931 50.1051 49.7147C49.7586 50.5362 49.2509 51.2822 48.6112 51.9097ZM61.373 38.6492C60.5208 38.4387 59.7776 37.9234 59.2904 37.2019L56.6442 33.2869C56.257 32.7149 56.0503 32.0426 56.0503 31.3548C56.0503 30.6671 56.257 29.9947 56.6442 29.4227L59.5274 25.1579C59.8688 24.6542 60.3369 24.2448 60.8873 23.9748L62.7977 23.0327C64.7875 26.9405 65.9355 31.336 65.9355 36C65.9355 37.2585 65.8266 38.491 65.6676 39.7074L61.373 38.6492Z" fill="url(#paint0_linear_1_2327)"/>
<defs>
<linearGradient id="paint0_linear_1_2327" x1="36.5" y1="2.21999e-06" x2="99.7631" y2="87.36" gradientUnits="userSpaceOnUse">
<stop stop-color="#8BD7DC"/>
<stop offset="1" stop-color="#1246A9"/>
</linearGradient>
</defs>
</svg>
