<svg width="81" height="68" viewBox="0 0 81 68" fill="none" xmlns="http://www.w3.org/2000/svg">
<path d="M62.775 29.75C52.7006 29.75 44.55 38.3031 44.55 48.875C44.55 59.4469 52.7006 68 62.775 68C72.8494 68 81 59.4469 81 48.875C81 38.3031 72.8494 29.75 62.775 29.75ZM70.875 49.7117C70.875 50.4156 70.3181 51 69.6473 51H61.9777C61.3069 51 60.75 50.4156 60.75 49.7117V39.5383C60.75 38.8344 61.3069 38.25 61.9777 38.25H63.5723C64.2431 38.25 64.8 38.8344 64.8 39.5383V46.75H69.6473C70.3181 46.75 70.875 47.3344 70.875 48.0383V49.7117ZM40.5 48.875C40.5 45.1828 41.348 41.6898 42.8034 38.582C41.7909 38.3828 40.7531 38.25 39.69 38.25H37.5764C34.7667 39.6047 31.6406 40.375 28.35 40.375C25.0594 40.375 21.9459 39.6047 19.1236 38.25H17.01C7.61906 38.25 0 46.2453 0 56.1V61.625C0 65.1445 2.72109 68 6.075 68H50.0048C44.2716 63.7633 40.5 56.7773 40.5 48.875ZM28.35 34C37.298 34 44.55 26.3898 44.55 17C44.55 7.61016 37.298 0 28.35 0C19.402 0 12.15 7.61016 12.15 17C12.15 26.3898 19.402 34 28.35 34Z" fill="url(#paint0_linear_1_2332)"/>
<defs>
<linearGradient id="paint0_linear_1_2332" x1="40.5" y1="2.09665e-06" x2="96.6808" y2="91.1455" gradientUnits="userSpaceOnUse">
<stop stop-color="#8BD7DC"/>
<stop offset="1" stop-color="#1246A9"/>
</linearGradient>
</defs>
</svg>
