<svg width="744" height="404" viewBox="0 0 744 404" fill="none" xmlns="http://www.w3.org/2000/svg">
<g filter="url(#filter0_d_1_2290)">
<path fill-rule="evenodd" clip-rule="evenodd" d="M553.771 11.9419C551.66 14.3704 551.681 14.6969 554.106 17.1525C555.206 18.2655 556.303 21.0071 556.544 23.244C556.786 25.4811 557.835 28.3494 558.876 29.6178C559.914 30.8873 560.527 31.984 560.236 32.0556C559.551 32.2229 564.823 42.2798 567.173 45.2872C568.166 46.5568 570.66 48.2432 572.716 49.0353C574.773 49.8272 576.109 50.8284 575.682 51.2589C574.478 52.4785 566.761 48.5901 566.761 46.7646C566.761 45.8688 565.95 44.6518 564.957 44.0582C563.964 43.4645 562.437 41.5959 561.56 39.9054C560.683 38.2148 559.372 37.2041 558.643 37.6602C557.915 38.1161 556.596 37.9247 555.712 37.2352C554.828 36.5459 551.375 35.8643 548.039 35.7213C542.799 35.4973 541.482 36.0196 538.371 39.5572C536.388 41.8104 534.26 43.6534 533.644 43.6534C533.026 43.6534 532.475 48.1946 532.417 53.7439C532.361 59.2945 531.945 64.4417 531.491 65.1838C531.038 65.9259 526.948 68.7336 522.402 71.4212C517.856 74.1102 513.913 76.5252 513.64 76.7882C512.889 77.5101 518.869 88.7057 520.611 89.8431C521.447 90.3881 523.557 90.8423 525.299 90.8551C530.715 90.8899 550.88 103.843 558.768 112.353C565.025 119.104 568.341 120.557 577.495 120.557H586.538L588.077 115.835C589.505 111.454 590.013 111.113 595.109 111.113C599.38 111.113 600.244 110.753 599.001 109.494C598.122 108.603 597.403 106.763 597.403 105.404C597.403 104.045 596.504 102.584 595.405 102.157C594.246 101.706 593.407 99.6863 593.407 97.3466C593.407 91.7345 589.13 86.2354 582.073 82.7761C578.78 81.1611 576.087 79.0941 576.087 78.1806C576.087 77.2672 574.655 75.2596 572.903 73.7174C569.983 71.1458 569.818 70.37 570.925 64.3661C571.588 60.7665 572.746 57.6095 573.499 57.3518C574.388 57.0469 574.324 56.2225 573.314 54.9907C572.373 53.8412 572.295 53.0978 573.118 53.0978C575.205 53.0978 576.301 57.2815 574.719 59.2136C573.941 60.1621 573.023 63.3071 572.677 66.2024C572.155 70.5872 572.611 71.9581 575.401 74.415C577.244 76.0381 578.752 77.9648 578.752 78.6974C578.752 79.43 580.203 80.3988 581.976 80.8507C586.951 82.1149 594.738 91.3895 594.738 96.0478C594.738 98.2167 595.638 100.745 596.737 101.669C597.836 102.593 598.755 104.032 598.779 104.869C598.892 108.76 606.728 114.867 606.728 111.066C606.728 110.131 607.635 110.16 609.467 111.153C610.974 111.97 612.902 112.403 613.75 112.115C615.263 111.605 621.384 117.904 621.384 119.972C621.384 120.548 622.333 122.083 623.493 123.38C624.653 124.678 626.656 127.73 627.943 130.162C629.232 132.595 631.13 135.008 632.163 135.522C633.195 136.038 635.538 137.144 637.37 137.983C643.023 140.565 649.527 145.911 647.749 146.512C644.703 147.54 662.15 150.292 667.447 149.619C670.566 149.223 673.614 147.794 675.004 146.079C676.357 144.406 678.182 143.533 679.363 143.992C681.469 144.811 681.898 145.687 683.243 151.908C684.418 157.343 689.629 160.037 702.5 161.869C708.811 162.769 716.524 163.936 719.638 164.463L725.299 165.426L725.319 160.868C725.347 154.282 728.046 149.834 732.863 148.437C737.578 147.067 739.993 142.145 735.949 142.145C734.176 142.145 733.294 140.75 732.659 136.939C731.957 132.742 730.861 131.239 726.986 129.172C722.447 126.753 713.588 116.216 713.397 113.009C713.349 112.197 714.537 110.406 716.039 109.03C717.895 107.328 718.64 105.217 718.371 102.417C718.044 99.0531 717.263 98.1842 714.061 97.6266C710.699 97.0423 709.882 96.0037 708.212 90.201C707.146 86.4904 706.251 81.5051 706.225 79.1224C706.199 76.7397 705.383 74.4825 704.413 74.1061C702.241 73.2614 702.132 68.7444 704.188 64.8506C706.082 61.2711 706.72 51.9522 705.141 50.9646C704.504 50.5666 703.983 48.4552 703.983 46.2722C703.983 42.9357 703.451 42.3042 700.64 42.3042C698.801 42.3042 696.27 41.09 695.014 39.6058C693.76 38.1217 692.06 36.9074 691.237 36.9074C690.414 36.9074 688.655 35.6932 687.33 34.209C686.004 32.725 683.287 31.5106 681.291 31.5106C676.658 31.5106 668.013 27.8838 668.013 25.9397C668.013 24.921 665.604 24.7485 660.352 25.392C652.172 26.3945 646.697 29.0684 646.697 32.0583C646.697 33.0688 645.495 34.2131 644.026 34.6017C642.342 35.0482 641.635 36.0453 642.113 37.3068C642.997 39.6382 636.312 41.0993 623.265 41.4257C616.36 41.5998 614.353 41.067 609.765 37.8451C606.8 35.7633 602.656 33.6046 600.555 33.0473C597.808 32.3188 596.38 30.8266 595.462 27.7248C594.761 25.3542 593.658 23.4154 593.011 23.4154C590.726 23.4154 586.833 17.2955 586.788 13.6338C586.728 8.48517 583.285 8.81707 577.101 14.5701C572.791 18.5785 571.476 19.0967 567.341 18.418C564.197 17.9013 561.599 16.3132 559.748 13.7781C556.562 9.41476 556.094 9.27048 553.771 11.9419ZM247.334 38.8948C244.598 41.4717 242.979 43.5968 243.74 43.617C244.565 43.6386 245.066 47.1991 244.983 52.4408C244.857 60.4212 244.45 61.6409 240.553 65.7128C236.832 69.6012 236.437 70.6616 237.582 73.7067C238.306 75.6387 240.128 77.8852 241.628 78.6974C243.127 79.511 244.357 80.8804 244.357 81.7412C244.357 82.6033 245.76 84.8578 247.476 86.7535C249.195 88.6518 251.305 93.5339 252.172 97.6208C253.038 101.703 254.332 105.952 255.048 107.065C257.037 110.164 259.208 106.177 258.633 100.48C258.222 96.401 258.843 95.4043 264.512 91.0363C269.682 87.053 270.864 85.3597 270.925 81.8478C270.967 79.4799 270.402 77.1674 269.669 76.7087C268.936 76.2499 268.336 74.6485 268.336 73.1495C268.336 70.8423 267.743 70.5548 264.466 71.2834C258.499 72.611 258.084 69.6645 263.53 64.6131C269.172 59.3797 270.159 52.832 265.673 50.3994C264.207 49.6047 263.008 48.1597 263.008 47.1883C263.008 46.2155 264.207 44.3212 265.673 42.9788C267.138 41.6363 268.336 39.6556 268.336 38.5776C268.336 36.6982 267.945 36.7334 262.183 39.1363C261.363 39.479 260.372 38.5102 259.977 36.9842C258.843 32.5912 253.107 33.4575 247.334 38.8948ZM220.597 39.0203C218.308 40.6744 217.095 40.8701 216 39.7623C213.77 37.5038 204.385 37.9381 189.276 40.9954C179.171 43.0407 175.07 44.4993 173.076 46.7552C171.609 48.4161 169.028 49.8798 167.342 50.0093C165.655 50.1375 161.74 51.9482 158.642 54.0315C153.326 57.6054 153.103 58.0115 154.698 61.193C155.628 63.0481 156.397 67.8094 156.407 71.7733C156.422 76.8895 157.192 79.9657 159.063 82.374C163.188 87.6857 160.718 90.8748 152.477 90.8748C144.04 90.8748 136.148 95.4984 137.12 99.8721C137.663 102.305 136.806 103.17 132.032 105.016C128.874 106.237 125.189 108.723 123.842 110.54C122.294 112.629 119.492 114.152 116.232 114.679C113.395 115.139 110.75 116.043 110.357 116.686C109.964 117.331 108.486 117.859 107.076 117.859C105.665 117.859 101.475 119.751 97.7658 122.062L91.022 126.263L91.3177 133.639C91.6081 140.932 91.6921 141.069 98.7491 145.964C110.362 154.02 135.208 173.122 143.208 180.144C147.295 183.731 151.059 186.668 151.572 186.668C155.056 186.668 183.072 211.821 183.072 214.948C183.072 215.72 184.571 216.351 186.403 216.351C188.235 216.351 189.734 216.957 189.734 217.699C189.734 218.442 190.86 219.048 192.236 219.048C195.685 219.048 198.123 222.408 197.081 225.73C196.029 229.091 196.208 229.097 210.538 226.246C221.548 224.055 222.001 223.811 228.782 216.393C234.587 210.044 244.622 201.959 254.795 195.438C255.953 194.695 257.717 193.33 258.717 192.402C259.715 191.475 261.239 190.69 262.103 190.657C262.968 190.626 266.28 188.283 269.463 185.449C275.521 180.06 275.508 180.153 271.309 173.263C271.113 172.939 268.428 172.333 265.345 171.915C260.544 171.262 259.567 170.57 258.545 167.104C256.97 161.767 255.397 158.172 253.403 155.359C252.062 153.467 252.257 152.51 254.5 149.963C256.954 147.175 257.178 145.467 256.738 132.876C256.426 123.944 255.525 117.466 254.246 114.96C253.143 112.801 252.556 110.517 252.941 109.885C254.437 107.434 248.816 89.4343 245.91 87.3741C244.323 86.2474 243.024 84.4705 243.024 83.4249C243.024 82.3805 241.873 80.902 240.466 80.1397C239.059 79.3774 237.236 76.6884 236.413 74.1655C235.034 69.9357 235.228 69.234 238.909 65.154C243.442 60.127 244.025 57.7483 242.935 48.6804C242.394 44.1754 242.69 41.7942 243.924 40.7581C247.104 38.0852 245.817 37.5875 234.694 37.1787C226.108 36.8629 223.027 37.2664 220.597 39.0203ZM520.908 39.0136C518.05 41.9076 510.002 43.0773 507.488 40.9658C505.88 39.6139 504.671 39.6166 501.422 40.9793C498.385 42.2529 496.553 42.3082 494.142 41.1952C490.88 39.6894 488.562 41.04 490.095 43.5522C491.469 45.8027 487.989 51.5986 485.78 50.7392C484.163 50.1119 483.915 50.6301 484.596 53.207C485.07 55.0029 485.466 57.8375 485.475 59.5064C485.489 61.5707 486.294 62.5421 487.996 62.5421C492.007 62.5421 494.251 66.1403 492.006 68.9763C488.901 72.8998 486.826 77.2214 486.826 79.7727C486.826 83.6745 497.656 89.0133 499.039 85.7929C499.785 84.0523 512.412 75.2246 519.466 71.5102C530.911 65.4861 530.92 65.4712 530.998 53.2812C531.059 44.0109 531.426 42.2812 533.473 41.6227C534.796 41.1978 536.606 39.9632 537.495 38.8784C538.881 37.1866 537.969 36.9074 531.048 36.9074C525.519 36.9074 522.334 37.5685 520.908 39.0136ZM116.047 57.3518C112.843 64.6685 103.459 74.6849 99.8068 74.6849C96.9118 74.6849 87.1505 84.0308 87.1505 86.8033C87.1505 88.1 86.038 90.61 84.6791 92.3792C81.555 96.4475 79.8444 105.327 81.7401 107.642C85.0255 111.651 67.9686 128.988 56.8603 132.929L50.5135 135.183L70.1643 135.291L89.8149 135.399V130.293C89.8149 125.96 90.4705 124.796 94.1448 122.611C96.5254 121.194 99.2672 119.241 100.234 118.272C101.203 117.303 103.716 116.51 105.818 116.51C107.922 116.51 110.012 115.902 110.465 115.161C110.918 114.419 112.615 113.811 114.237 113.811C115.858 113.811 119.27 112.082 121.818 109.97C124.367 107.855 128.666 105.072 131.371 103.78C135.743 101.696 136.156 101.078 135.087 98.2272C133.766 94.7096 134.057 94.3634 139.442 93.06C141.456 92.5721 143.105 91.5765 143.105 90.8493C143.105 90.121 146.338 89.5261 150.29 89.5261C158.342 89.5261 160.364 87.4415 157.228 82.3726C156.22 80.7415 155.094 75.2732 154.726 70.2204C153.99 60.1284 151.56 56.696 146.103 58.0452C144.356 58.477 143.105 58.1627 143.105 57.2911C143.105 56.3992 140.456 55.7962 136.538 55.7962C132.359 55.7962 129.215 55.0297 127.89 53.6859C126.743 52.5256 125.176 51.9712 124.406 52.4528C123.635 52.9359 122.15 52.6119 121.106 51.7336C119.539 50.4167 118.652 51.4031 116.047 57.3518ZM482.708 71.1876L480.588 78.4787L483.708 77.0406C485.423 76.2486 486.826 74.6296 486.826 73.4436C486.826 72.2577 488.071 70.4996 489.591 69.5378C491.814 68.1319 492.043 67.4046 490.762 65.8396C487.533 61.8986 484.901 63.6456 482.708 71.1876ZM272.688 82.2161C273.39 85.7713 272.823 86.582 266.852 90.5832C260.527 94.8199 260.278 95.2196 261.12 99.7653C261.831 103.607 261.421 105.142 258.978 107.774C257.318 109.564 255.447 110.71 254.821 110.317C253.17 109.285 253.416 110.726 255.627 115.055C256.861 117.473 257.77 124.359 258.117 133.924C258.627 148.039 258.486 149.111 255.855 150.976C253.5 152.647 253.314 153.345 254.705 155.314C256.613 158.014 259.815 164.663 260.871 168.116C261.333 169.632 262.933 170.478 265.334 170.478C270.12 170.478 274.471 173.565 275.492 177.686C276.129 180.257 277.409 181.062 281.8 181.658C285.483 182.158 288.715 183.786 291.543 186.561C296.383 191.313 299.406 191.796 301.9 188.218C302.858 186.845 305.597 184.699 307.987 183.452L312.333 181.185L326.224 188.562C341.439 196.644 344.876 198.667 353.151 204.407C356.203 206.524 359.214 208.255 359.843 208.255C360.474 208.255 363.972 210.242 367.62 212.67C379.615 220.658 385.252 223.199 386.088 220.991C386.512 219.872 388.594 219.048 391.004 219.048H395.184L394.247 186.33C393.731 168.335 392.726 145.112 392.015 134.724C389.712 101.117 389.703 96.3313 391.933 95.0674C394.482 93.6234 392.894 90.8748 389.512 90.8748C383.932 90.8748 375.079 87.6035 374.49 85.3233C373.555 81.7007 364.628 79.5137 358.075 81.3013C347.882 84.0807 343.119 91.7391 347.006 99.0961C348.157 101.274 347.694 102.459 344.387 105.811C340.476 109.772 340.261 109.823 336.327 107.764C334.103 106.601 332.285 105.152 332.285 104.549C332.285 102.909 326.001 100.323 318.524 98.887C310.7 97.3838 308.777 95.9816 306.296 89.9713C305.277 87.4995 303.493 85.4784 302.33 85.4784C301.167 85.4784 298.785 84.5285 297.036 83.3682C295.238 82.1742 290.195 81.0828 285.425 80.8547C280.789 80.6334 275.852 79.9643 274.453 79.3666C272.207 78.406 272.002 78.7365 272.688 82.2161ZM508.142 80.7562C507.229 81.8694 505.751 82.78 504.855 82.78C503.959 82.78 502.141 83.9943 500.815 85.4784C497.965 88.6666 493.678 88.954 490.078 86.1962C488.656 85.1061 487.193 84.1967 486.826 84.1724C486.46 84.1495 486.17 87.9246 486.183 92.5628C486.205 100.722 485.802 103.52 483.094 114.029C481.823 118.951 481.837 118.973 486.597 119.878C490.84 120.683 491.754 120.317 494.763 116.611C496.626 114.315 499.079 112.443 500.215 112.45C502.75 112.465 505.478 109.855 505.478 107.414C505.478 106.418 504.279 104.299 502.813 102.708C501.348 101.114 500.148 99.3622 500.148 98.8138C500.148 96.9389 507.165 92.2247 509.987 92.2038C515.227 92.1655 516.072 90.6901 514.427 84.4504C512.852 78.4721 510.937 77.3469 508.142 80.7562ZM478.684 83.792C477.906 85.8333 477.098 89.7109 476.888 92.4117C476.68 95.1115 476.138 97.9286 475.685 98.6709C474.601 100.446 480.288 114.26 481.528 112.863C482.054 112.272 482.847 108.926 483.29 105.427C483.891 100.699 483.616 98.7952 482.217 98.0018C477.961 95.5901 478.612 84.8551 483.087 83.6706C484.558 83.2806 485.366 82.3132 484.884 81.5212C483.272 78.8809 480.116 80.0371 478.684 83.792ZM481.774 90.5461C481.988 93.6931 482.763 96.0536 483.495 95.7899C485.107 95.2137 484.499 88.0378 482.683 86.1638C481.838 85.2923 481.521 86.8221 481.774 90.5461ZM513.471 92.8811C511.64 93.951 509.165 94.849 507.972 94.8757C503.89 94.964 502.398 98.4235 504.825 102.175C508.164 107.335 506.956 111.522 501.627 113.266C498.972 114.135 496.313 116.281 495.185 118.463C493.41 121.891 492.82 122.112 487.562 121.314L481.863 120.448L481.028 125.562C479.774 133.259 479.939 134.049 482.802 134.049C484.521 134.049 486.352 135.859 488.056 139.243C489.495 142.099 492.684 147.108 495.143 150.373C500.73 157.795 503.751 163.36 504.728 168.03C505.198 170.278 507.587 173.096 511.02 175.451C517.491 179.89 522.123 189.651 523.437 201.62C524.298 209.457 526.757 213.107 535.828 220.009C537.983 221.65 541.982 227.57 544.711 233.164C547.44 238.757 550.185 243.334 550.813 243.334C551.44 243.334 553.636 246.37 555.692 250.078C557.751 253.787 559.882 256.823 560.433 256.824C561.498 256.826 561.505 256.803 561.922 251.013C562.234 246.659 565.197 244.158 567.624 246.198C568.713 247.113 570.838 247.113 574.112 246.198C577.218 245.329 580.174 245.296 582.282 246.11C584.1 246.809 587.826 247.382 590.562 247.382C593.298 247.382 596.309 248.14 597.253 249.068C598.63 250.424 599.4 250.136 601.183 247.601C610.628 234.16 613.876 232.392 632.707 230.431C637.837 229.897 645.93 227.971 650.693 226.149C655.455 224.328 660.477 222.612 661.849 222.337C668.297 221.046 670.103 218.287 671.923 206.938C674.138 193.118 673.785 192.683 658.801 190.798C645.581 189.133 643.09 187.714 637.176 178.47C634.726 174.641 631.37 170.989 629.717 170.352C627.82 169.62 626.71 168.064 626.703 166.126C626.699 164.438 625.505 161.235 624.048 159.009C622.592 156.783 621.397 153.312 621.393 151.298C621.386 149.023 620.375 147.089 618.719 146.192C617.253 145.397 616.054 143.91 616.054 142.885C616.054 141.86 614.256 140.215 612.058 139.23C609.859 138.244 608.061 136.465 608.061 135.278C608.061 132.1 603.699 128.653 599.676 128.653C597.606 128.653 595.615 127.613 594.826 126.122C593.711 124.01 591.509 123.495 581.574 123.013C568.221 122.367 565.69 121.115 552.045 108.411C537.949 95.2869 521.021 88.4723 513.471 92.8811ZM392.621 96.6089C391.199 98.4944 391.378 107.251 393.391 134.049C394.143 144.068 394.796 158.942 394.842 167.104C394.887 175.267 395.297 185.089 395.752 188.932L396.581 195.917L424.052 196.352C439.159 196.591 451.669 196.483 451.851 196.111C452.033 195.741 456.417 195.641 461.594 195.89C468.165 196.203 471.228 196.918 471.733 198.25C472.868 201.247 473.889 200.68 482.791 192.102C489.119 186.004 490.981 183.378 490.445 181.309C489.971 179.468 490.387 178.572 491.716 178.572C493.243 178.572 493.042 177.735 490.824 174.862C487.397 170.428 474.835 148.009 474.835 146.329C474.835 145.682 473.94 143.412 472.845 141.287C470.151 136.053 470.138 133.129 472.82 135.384C476.338 138.34 478.454 135.942 479.561 127.747C480.876 118.007 480.818 117.611 476.666 107.995C474.804 103.684 473.613 99.2797 474.018 98.2097C474.659 96.5183 474.368 96.5195 471.799 98.2167C468.503 100.394 460.387 100.662 457.908 98.6768C457.023 97.9681 455.661 97.7904 454.877 98.2794C454.094 98.7697 453.618 98.427 453.82 97.5174C454.064 96.408 451.659 95.6715 446.526 95.2846C441.573 94.9094 438.865 95.2196 438.865 96.1628C438.865 96.9656 438.155 97.6208 437.285 97.6208C436.416 97.6208 434.324 98.9358 432.635 100.542C430.001 103.049 429.082 103.241 426.159 101.891C424.286 101.027 421.732 100.3 420.484 100.274C419.235 100.249 415.818 99.0555 412.887 97.6208C406.781 94.6352 394.572 94.0253 392.621 96.6089ZM591.291 113.494C588.82 115.186 588.062 120.557 590.296 120.557C592.584 120.557 596.07 123.757 596.07 125.858C596.07 126.653 597.569 127.303 599.401 127.303C601.234 127.303 602.732 127.028 602.732 126.692C602.732 124.708 599.408 119.202 598.188 119.168C597.39 119.145 597.786 118.508 599.068 117.752C603.018 115.421 601.896 112.459 597.07 112.482C594.688 112.495 592.088 112.949 591.291 113.494ZM465.401 124.943C466.118 126.984 466.46 128.653 466.163 128.653C465.34 128.653 458.844 117.12 458.878 115.716C458.926 113.74 463.974 120.881 465.401 124.943ZM470.173 131.351C470.626 132.093 470.396 132.7 469.664 132.7C468.931 132.7 467.961 132.093 467.509 131.351C467.056 130.609 467.285 130.002 468.017 130.002C468.751 130.002 469.72 130.609 470.173 131.351ZM48.0714 138.997C47.5825 139.491 47.1828 140.832 47.1828 141.977C47.1828 143.12 44.1852 146.951 40.5216 150.491C35.9013 154.954 33.8603 157.988 33.8603 160.395C33.8603 165.114 30.6909 170.967 26.7022 173.614C24.8889 174.818 23.0118 177.184 22.5309 178.873C21.0241 184.179 17.6322 191.283 15.2701 194.088C12.964 196.826 9.77056 206.348 10.013 209.76C10.0863 210.787 10.5619 210.11 11.0695 208.255C11.9901 204.901 12.09 204.879 29.5892 204.506L47.1828 204.129V195.455V186.781L53.178 183.224L59.1731 179.665V166.976V154.287H73.8279H88.4827L88.6532 149.228C88.7465 146.446 88.9636 142.803 89.1368 141.133C89.4499 138.103 89.4059 138.096 69.205 138.096C58.07 138.096 48.5591 138.502 48.0714 138.997ZM675.68 154.962C676.03 156.817 676.846 158.334 677.494 158.334C678.141 158.334 678.671 156.817 678.671 154.962C678.671 153.016 677.903 151.588 676.858 151.588C675.641 151.588 675.253 152.7 675.68 154.962ZM623.662 155.636C624.045 157.12 624.888 158.334 625.536 158.334C626.182 158.334 626.712 157.12 626.712 155.636C626.712 154.152 625.87 152.938 624.839 152.938C623.622 152.938 623.208 153.883 623.662 155.636ZM628.319 156.768C626.507 162.034 627.743 167.269 631.368 169.674C634.242 171.581 634.438 171.495 635.108 168.046C636.342 161.704 633.771 152.938 630.676 152.938C630.106 152.938 629.044 154.662 628.319 156.768ZM666.68 163.983C659.02 173.679 656.395 175.179 648.69 174.268C646.129 173.965 644.032 174.202 644.032 174.796C644.032 175.388 642.833 175.874 641.367 175.874C639.902 175.874 638.702 175.267 638.702 174.525C638.702 173.783 638.123 173.176 637.414 173.176C635.334 173.176 637.698 177.953 642.319 183.083C645.703 186.84 647.935 188.009 652.977 188.66C656.483 189.113 661.254 189.78 663.578 190.142C668.53 190.911 668.844 190.542 670.013 182.601C670.502 179.282 671.333 176.258 671.858 175.884C672.385 175.508 672.785 173.075 672.746 170.478C672.688 166.631 673.169 165.755 675.339 165.755C677.089 165.755 678.151 164.712 678.431 162.72C678.709 160.73 678.168 159.684 676.858 159.684C675.758 159.684 674.667 158.564 674.434 157.196C674.116 155.337 672.155 157.054 666.68 163.983ZM675.946 167.307C674.449 167.717 674.034 169.147 674.426 172.547C674.755 175.401 674.389 177.223 673.487 177.223C672.674 177.223 672.111 177.679 672.233 178.235C672.357 178.791 672.002 181.46 671.445 184.165C670.683 187.862 671.006 189.97 672.739 192.65C674.61 195.541 674.884 197.925 674.187 205.27C672.827 219.597 672.777 219.68 662.905 223.475C658.02 225.354 652.349 227.269 650.303 227.732C648.256 228.195 646.219 229.53 645.775 230.701C645.331 231.877 647.289 237.648 650.156 243.602L655.342 254.373L660.013 253.445C662.581 252.933 666.415 252.423 668.531 252.31C670.72 252.192 672.876 251.085 673.528 249.742C674.158 248.443 675.184 246.32 675.807 245.02C676.431 243.721 678.579 242.462 680.579 242.223C683.242 241.901 684.712 240.588 686.058 237.326C687.898 232.864 690.202 231.191 694.505 231.191C696.398 231.191 696.785 229.924 696.726 223.885C696.645 215.435 697.371 214.211 701.224 216.298C703.521 217.544 704.181 217.396 704.909 215.477C705.41 214.155 705.121 212.911 704.244 212.616C703.278 212.289 704.122 210.22 706.474 207.137C708.555 204.412 710.971 200.321 711.845 198.045C713.37 194.063 713.172 193.639 706.634 186.913C702.897 183.068 699.123 179.917 698.248 179.914C692.808 179.888 686.966 176.698 683.41 171.815C681.255 168.852 679.156 166.5 678.748 166.586C678.339 166.673 677.078 166.996 675.946 167.307ZM485.108 192.155C474.24 202.788 473.755 203.043 470.947 199.617C469.691 198.084 462.441 197.696 432.815 197.574L396.233 197.425V208.912V220.398H392.268H388.303L387.938 242.996L387.573 265.596L383.53 265.997C380.237 266.324 379.01 267.448 376.907 272.068C375.489 275.187 374.456 278.822 374.614 280.145C374.772 281.469 374.01 282.898 372.919 283.321C371.609 283.83 371.2 285.143 371.709 287.198C372.132 288.906 371.843 291.509 371.066 292.979C369.901 295.183 370.116 295.777 372.285 296.352C374.349 296.898 374.917 298.206 374.917 302.408C374.917 305.645 375.749 308.465 377.022 309.535C378.229 310.548 378.881 312.606 378.553 314.354C378.226 316.082 378.727 317.697 379.707 318.077C383.03 319.368 385.832 327.059 385.225 333.217C384.718 338.372 384.974 339.126 387.232 339.126C388.7 339.126 390.123 340.295 390.517 341.825C390.952 343.505 392.335 344.524 394.184 344.524C397.57 344.524 402.245 349.06 400.983 351.126C400.523 351.882 401.812 353.547 403.851 354.826C408.809 357.939 410.887 360.655 410.887 364.025C410.887 365.629 412.163 367.387 413.884 368.153C415.532 368.884 417.78 371.413 418.879 373.772C419.98 376.13 422.186 379.575 423.782 381.43C426.424 384.496 427.412 384.742 434.775 384.163C442.36 383.568 442.958 383.735 444.358 386.848C446.084 390.685 449.693 392.237 455.913 391.817C458.329 391.654 461.047 392.144 461.953 392.905C462.99 393.776 464.325 393.825 465.556 393.038C466.629 392.349 470.041 391.778 473.136 391.765C478.034 391.748 479.032 391.219 480.831 387.698C482.746 383.948 483.436 383.651 490.192 383.651C497.407 383.651 497.484 383.607 497.484 379.602C497.484 376.579 496.867 375.555 495.045 375.555C493.68 375.555 491.861 373.92 490.92 371.844C485.707 360.373 481.202 354.158 476.422 351.848C472.827 350.11 472.09 349.053 472.425 346.109C472.762 343.168 473.605 342.424 476.983 342.091L481.125 341.682L481.855 330.91C482.539 320.804 484.458 315.384 486.827 316.866C487.395 317.222 488.264 314.785 488.756 311.455C489.251 308.122 490.17 305.397 490.801 305.397C491.431 305.397 492.642 303.272 493.488 300.674C494.484 297.614 495.867 295.952 497.414 295.952C500.181 295.952 501.409 290.508 501.524 277.738C501.565 273.286 502.461 267.214 503.518 264.246C504.573 261.278 505.447 257.161 505.457 255.098C505.47 252.847 506.37 250.997 507.708 250.478C508.934 250.001 510.882 248.79 512.038 247.785C513.192 246.781 515.826 244.606 517.892 242.951L521.646 239.942L516.255 235.904C510.024 231.235 508.302 227.045 507.645 214.944C507.385 210.152 506.195 204.409 505.001 202.184C503.807 199.957 502.826 197.428 502.821 196.562C502.813 195.036 493.305 186.668 491.577 186.668C491.104 186.668 488.193 189.137 485.108 192.155ZM630.709 231.936C629.61 232.175 625.839 232.752 622.327 233.221C615.098 234.185 608.504 239.192 603.147 247.785C600.111 252.656 599.714 252.873 597.537 250.877C596.25 249.697 592.844 248.67 589.971 248.596C587.098 248.521 583.248 248.022 581.416 247.486C579.584 246.95 576.096 247.051 573.665 247.709C570.764 248.496 568.649 248.409 567.513 247.455C565.236 245.539 562.378 248.84 563.575 252.001C564.1 253.382 563.359 255.423 561.68 257.233C558.806 260.332 558.048 267.364 560.052 272.342C561.949 277.05 564.593 287.136 564.267 288.413C563.52 291.337 567.233 297.312 569.92 297.515C576.897 298.037 582.625 296.541 586.022 293.308C587.771 291.645 590.726 290.553 593.492 290.549C596.016 290.544 600.46 289.05 603.398 287.217C606.329 285.39 610.03 283.874 611.622 283.852C613.216 283.829 616.214 282.37 618.284 280.612C620.355 278.853 625.348 276.072 629.377 274.433C646.12 267.622 648.237 266.36 647.4 263.691C646.526 260.901 649.723 256.826 652.786 256.826C655.493 256.826 655.369 256.434 648.458 243.16C642.342 231.411 642.14 231.193 637.468 231.348C634.85 231.434 631.809 231.699 630.709 231.936ZM550.313 252.442C549.928 253.073 550.774 254.322 552.193 255.217C553.611 256.115 554.771 256.31 554.771 255.653C554.771 253.801 551.098 251.156 550.313 252.442ZM659.393 298.586C658.912 299.374 659.404 300.364 660.488 300.785C663.379 301.908 670.011 300.892 670.011 299.326C670.011 297.472 660.477 296.809 659.393 298.586ZM563.402 300.046C562.886 300.892 561.33 301.284 559.944 300.917C558.11 300.432 557.205 301.134 556.619 303.498C556.177 305.285 555.28 306.747 554.627 306.747C553.973 306.747 553.438 308.635 553.438 310.944C553.438 315.06 553.537 315.124 558.434 314.217C561.183 313.711 564.309 312.428 565.381 311.37C567.085 309.689 566.916 309.438 564.048 309.391L560.766 309.336L564.511 307.28C567.112 305.853 568.129 304.356 567.841 302.38C567.367 299.124 564.792 297.77 563.402 300.046ZM647.362 302.698C647.816 303.44 648.785 304.048 649.518 304.048C650.251 304.048 650.481 303.44 650.027 302.698C649.574 301.957 648.604 301.349 647.872 301.349C647.139 301.349 646.909 301.957 647.362 302.698Z" fill="#BECAD6" fill-opacity="0.24" shape-rendering="crispEdges"/>
</g>
<defs>
<filter id="filter0_d_1_2290" x="0" y="0" width="748" height="403.595" filterUnits="userSpaceOnUse" color-interpolation-filters="sRGB">
<feFlood flood-opacity="0" result="BackgroundImageFix"/>
<feColorMatrix in="SourceAlpha" type="matrix" values="0 0 0 0 0 0 0 0 0 0 0 0 0 0 0 0 0 0 127 0" result="hardAlpha"/>
<feOffset/>
<feGaussianBlur stdDeviation="5"/>
<feComposite in2="hardAlpha" operator="out"/>
<feColorMatrix type="matrix" values="0 0 0 0 1 0 0 0 0 1 0 0 0 0 1 0 0 0 1 0"/>
<feBlend mode="normal" in2="BackgroundImageFix" result="effect1_dropShadow_1_2290"/>
<feBlend mode="normal" in="SourceGraphic" in2="effect1_dropShadow_1_2290" result="shape"/>
</filter>
</defs>
</svg>
